<svg width="25" height="25" viewBox="0 0 25 25" fill="none" xmlns="http://www.w3.org/2000/svg">
<path fill-rule="evenodd" clip-rule="evenodd" d="M0 3.51562C0 2.58322 0.370395 1.68901 1.0297 1.0297C1.68901 0.370395 2.58322 0 3.51562 0H21.4844C22.4168 0 23.311 0.370395 23.9703 1.0297C24.6296 1.68901 25 2.58322 25 3.51562V16.7969C25 17.7293 24.6296 18.6235 23.9703 19.2828C23.311 19.9421 22.4168 20.3125 21.4844 20.3125H16.6328C16.9379 21.3349 17.5353 22.2457 18.3516 22.9328C18.5352 23.0879 18.6667 23.2956 18.7282 23.5279C18.7898 23.7602 18.7784 24.0058 18.6957 24.2315C18.613 24.4571 18.4629 24.6519 18.2658 24.7893C18.0687 24.9268 17.8341 25.0003 17.5938 25H7.40625C7.16606 25 6.93167 24.9263 6.7348 24.7887C6.53793 24.6511 6.38809 24.4563 6.30557 24.2307C6.22305 24.0052 6.21184 23.7597 6.27344 23.5275C6.33505 23.2954 6.4665 23.0878 6.65 22.9328C7.46568 22.2455 8.06257 21.3347 8.36719 20.3125H3.51562C2.58322 20.3125 1.68901 19.9421 1.0297 19.2828C0.370395 18.6235 0 17.7293 0 16.7969V3.51562ZM2.34375 3.51562C2.34375 3.20482 2.46721 2.90675 2.68698 2.68698C2.90675 2.46721 3.20482 2.34375 3.51562 2.34375H21.4844C21.7952 2.34375 22.0932 2.46721 22.313 2.68698C22.5328 2.90675 22.6562 3.20482 22.6562 3.51562V15.2344C22.6562 15.5452 22.5328 15.8432 22.313 16.063C22.0932 16.2828 21.7952 16.4062 21.4844 16.4062H3.51562C3.20482 16.4062 2.90675 16.2828 2.68698 16.063C2.46721 15.8432 2.34375 15.5452 2.34375 15.2344V3.51562Z" fill="#EFF0F2"/>
</svg>
